<?xml version="1.0" encoding="utf-8"?>
<!-- Generator: Adobe Illustrator 24.0.1, SVG Export Plug-In . SVG Version: 6.00 Build 0)  -->
<svg version="1.1" id="Ask_Oracle_x_Icon_Square" xmlns="http://www.w3.org/2000/svg" xmlns:xlink="http://www.w3.org/1999/xlink"
	 x="0px" y="0px" viewBox="0 0 72 72" style="enable-background:new 0 0 72 72;" xml:space="preserve">
<style type="text/css">
	.st0{fill:#C74634;}
	.st1{fill:#FFFFFF;}
</style>
<rect id="Rectangle" class="st0" width="72" height="72"/>
<path id="Fill_2" class="st1" d="M43.4,48.8H28.6c-7.1,0-12.8-5.7-12.8-12.8c0,0,0,0,0,0c0-7.1,5.7-12.8,12.7-12.8c0,0,0,0,0,0h14.8
	c7,0,12.8,5.7,12.7,12.8c0,0,0,0,0,0C56.2,43,50.5,48.8,43.4,48.8C43.4,48.8,43.4,48.8,43.4,48.8z M28.9,27.7
	c-4.6,0-8.3,3.7-8.3,8.3c0,4.6,3.7,8.3,8.3,8.3h14.2c4.6,0,8.3-3.7,8.3-8.3c0-4.6-3.7-8.3-8.3-8.3H28.9z"/>
</svg>
