<?xml version="1.0" encoding="utf-8"?>
<!-- Generator: Adobe Illustrator 22.0.1, SVG Export Plug-In . SVG Version: 6.00 Build 0)  -->
<svg version="1.1" id="raf-icon-favorite-report" xmlns="http://www.w3.org/2000/svg" xmlns:xlink="http://www.w3.org/1999/xlink"
	 x="0px" y="0px" viewBox="0 0 32 32" style="enable-background:new 0 0 32 32;" xml:space="preserve">
<path style="fill:#D4D6D7;" d="M10.3,27h7.4V3c0-1.1-0.9-2-2-2h-3.4c-1.1,0-2,0.9-2,2V27z"/>
<path style="fill:#D4D6D7;" d="M1,27h7.4V11.9c0-1.1-0.9-2-2-2H3c-1.1,0-2,0.9-2,2V27z"/>
<polygon style="fill:#D4D6D7;" points="25.2,29.5 29.4,32 28.4,27.2 32,24 27.1,23.5 25.2,19 23.2,23.5 18.3,24 22,27.2 20.9,32 "/>
<path style="fill:#D4D6D7;" d="M23.3,18.2l1.8-4.2l1.8,4.2l0,0V6.6c0-1.1-0.9-2-2-2h-3.4c-1.1,0-2,0.9-2,2v15.3l2.3-0.2L23.3,18.2z"
	/>
</svg>
