<?xml version="1.0" encoding="utf-8"?>
<!-- Generator: Adobe Illustrator 22.1.0, SVG Export Plug-In . SVG Version: 6.00 Build 0)  -->
<svg version="1.1" id="raf-icon-favorite-default" xmlns="http://www.w3.org/2000/svg" xmlns:xlink="http://www.w3.org/1999/xlink"
	 x="0px" y="0px" viewBox="0 0 32 32" style="enable-background:new 0 0 32 32;" xml:space="preserve">
<polygon style="fill:#0572CE;" points="25.2,29.5 29.4,32 28.4,27.2 32,24 27.1,23.5 25.2,19 23.2,23.5 18.3,24 22,27.2 20.9,32 "/>
<path style="fill:#0572CE;" d="M17,25.5l-3.4-3l4.5-0.5l3.7-0.4l1.5-3.4l1.8-4.2l1.8,4.2l1.5,3.4l0.5,0.1V3c0-1.1-0.9-2-2-2H13v18
	l-3.5-3.5L6,19V1H3C1.9,1,1,1.9,1,3v24c0,1.1,0.9,2,2,2h16.5l0.2-1.1L17,25.5z"/>
</svg>
