<?xml version="1.0" encoding="utf-8"?>
<!-- Generator: Adobe Illustrator 20.1.0, SVG Export Plug-In . SVG Version: 6.00 Build 0)  -->
<svg version="1.1" id="raf-icon-star-outline" xmlns="http://www.w3.org/2000/svg" xmlns:xlink="http://www.w3.org/1999/xlink"
	 x="0px" y="0px" viewBox="0 0 32 32" style="enable-background:new 0 0 32 32;" xml:space="preserve">
<style type="text/css">
	.st0{fill:#FFFFFF;}
</style>
<path class="st0" d="M16,5.9l2.6,5.8l0.5,1.1l1.2,0.1l6.3,0.6l-4.8,4.3l-0.9,0.8l0.2,1.1l1.4,6.2L17,22.7l-1-0.6l-1,0.6l-5.5,3.2
	l1.4-6.2l0.2-1.1l-0.9-0.8l-4.8-4.3l6.3-0.6l1.2-0.1l0.5-1.1L16,5.9 M16,0.9l-4.4,10L0.7,12l8.1,7.3L6.6,30l9.4-5.5l9.4,5.5
	l-2.3-10.7l8.1-7.3l-10.9-1.1L16,0.9L16,0.9z"/>
</svg>
