<?xml version="1.0" encoding="utf-8"?>
<!-- Generator: Adobe Illustrator 22.0.1, SVG Export Plug-In . SVG Version: 6.00 Build 0)  -->
<svg version="1.1" id="raf-icon-primary-account" xmlns="http://www.w3.org/2000/svg" xmlns:xlink="http://www.w3.org/1999/xlink"
	 x="0px" y="0px" viewBox="0 0 32 32" style="enable-background:new 0 0 32 32;" xml:space="preserve">
<path style="fill:#85BBE7;" d="M16,2c-3.3,0-6,2.7-6,6c0,0.3,0,0.7,0.1,1c0.5,2.8,2.9,5,5.9,5s5.4-2.2,5.9-5C22,8.7,22,8.3,22,8
	C22,4.7,19.3,2,16,2z"/>
<polygon style="fill:#85BBE7;" points="23,27.4 27.3,30 26.3,24.9 30,21.3 25,20.8 23,16 21,20.8 16,21.3 19.7,24.9 18.7,30 "/>
<path style="fill:#85BBE7;" d="M17.5,25.5l-2.9-2.7l-3.2-3l4.3-0.5l3.8-0.4l1-2.4c-1.4-0.4-3-0.6-4.6-0.6C8.3,16,2,20.5,2,26v2
	c0,0.7,0.4,1.4,1,1.7C3.3,29.9,3.6,30,4,30h12.6l0.1-0.4L17.5,25.5z"/>
</svg>
