<?xml version="1.0" encoding="utf-8"?>
<!-- Generator: Adobe Illustrator 21.0.2, SVG Export Plug-In . SVG Version: 6.00 Build 0)  -->
<svg version="1.1" id="raf-icon-quick-search" xmlns="http://www.w3.org/2000/svg" xmlns:xlink="http://www.w3.org/1999/xlink"
	 x="0px" y="0px" viewBox="0 0 32 32" style="enable-background:new 0 0 32 32;" xml:space="preserve">
<style type="text/css">
	.st0{fill:#FFFFFF;}
</style>
<rect x="1" y="6" class="st0" width="7" height="2"/>
<rect x="3" y="10" class="st0" width="5" height="2"/>
<rect x="5" y="14" class="st0" width="3" height="2"/>
<path class="st0" d="M28,6H12c-1.1,0-2,0.9-2,2v16c0,1.1,0.9,2,2,2h16c1.1,0,2-0.9,2-2V8C30,6.9,29.1,6,28,6z M26.9,23.1L26.9,23.1
	c-0.4,0.4-1,0.4-1.4,0l-5.9-5.9c-1.1,0.7-2.4,1-3.9,0.6c-1.9-0.5-3.4-2.2-3.7-4.1c-0.5-3.3,2.4-6.2,5.8-5.6c2,0.3,3.6,1.9,4.1,3.8
	c0.3,1.5,0,2.9-0.8,4l5.8,5.8C27.3,22.1,27.3,22.7,26.9,23.1z"/>
<path class="st0" d="M17.5,10c-2-0.3-3.8,1.4-3.4,3.5c0.2,1.2,1.1,2.1,2.2,2.4c0.7,0.2,1.3,0.1,1.9-0.1c0.6-0.3,1.2-0.7,1.5-1.3
	s0.5-1.4,0.3-2.2C19.6,11.1,18.6,10.2,17.5,10z"/>
</svg>
