<?xml version="1.0" encoding="utf-8"?>
<!-- Generator: Adobe Illustrator 22.0.1, SVG Export Plug-In . SVG Version: 6.00 Build 0)  -->
<svg version="1.1" id="raf-icon-favorite-task" xmlns="http://www.w3.org/2000/svg" xmlns:xlink="http://www.w3.org/1999/xlink"
	 x="0px" y="0px" viewBox="0 0 32 32" style="enable-background:new 0 0 32 32;" xml:space="preserve">
<polygon style="fill:#FFFFFF;" points="25.2,29.5 29.4,32 28.4,27.2 32,24 27.1,23.5 25.2,19 23.2,23.5 18.3,24 22,27.2 20.9,32 "/>
<polygon style="fill:#FFFFFF;" points="11.8,25.3 6.6,20 9,17.6 11.8,20.4 21,11.3 23.4,13.7 "/>
<path style="fill:none;" d="M6.6,6.6c1,0,1.9-0.8,1.9-1.9c0-1-0.8-1.9-1.9-1.9c-1,0-1.9,0.8-1.9,1.9C4.7,5.8,5.6,6.6,6.6,6.6z"/>
<path style="fill:none;" d="M23.4,6.6c1,0,1.9-0.8,1.9-1.9c0-1-0.8-1.9-1.9-1.9c-1,0-1.9,0.8-1.9,1.9C21.5,5.8,22.4,6.6,23.4,6.6z"
	/>
<path style="fill:#FFFFFF;" d="M15.9,27.1h-1.9H9.4H7.5H2.9v-4.7v-1.9v-4.7v-1.9V9.4h4.7h1.9h4.7h1.9h4.7h1.9h4.7v4.7v1.9v4.7V22H29
	V2.9c0-1-0.8-1.9-1.9-1.9H2.9C1.8,1,1,1.8,1,2.9v24.3c0,1,0.8,1.9,1.9,1.9H20v-1.9H15.9z M23.4,2.9c1,0,1.9,0.8,1.9,1.9
	c0,1-0.8,1.9-1.9,1.9c-1,0-1.9-0.8-1.9-1.9C21.5,3.7,22.4,2.9,23.4,2.9z M6.6,2.9c1,0,1.9,0.8,1.9,1.9c0,1-0.8,1.9-1.9,1.9
	c-1,0-1.9-0.8-1.9-1.9C4.7,3.7,5.6,2.9,6.6,2.9z"/>
</svg>
