<?xml version="1.0" encoding="utf-8"?>
<!-- Generator: Adobe Illustrator 22.0.1, SVG Export Plug-In . SVG Version: 6.00 Build 0)  -->
<svg version="1.1" id="raf-icon-pin-outline" xmlns="http://www.w3.org/2000/svg" xmlns:xlink="http://www.w3.org/1999/xlink"
	 x="0px" y="0px" viewBox="0 0 32 32" style="enable-background:new 0 0 32 32;" xml:space="preserve">
<path d="M28.8,10.2l-7.1-7.1c-0.4-0.4-0.4-1,0-1.4l0,0c0.4-0.4,1-0.4,1.4,0l7.1,7.1c0.4,0.4,0.4,1,0,1.4v0
	C29.9,10.6,29.2,10.6,28.8,10.2z"/>
<path d="M15.4,23.7l-7.1-7.1c-0.4-0.4-0.4-1,0-1.4l0,0c0.4-0.4,1-0.4,1.4,0l7.1,7.1c0.4,0.4,0.4,1,0,1.4l0,0
	C16.4,24,15.8,24,15.4,23.7z"/>
<polygon points="9.1,20.1 11.9,22.9 1.3,30.7 "/>
<rect x="8.7" y="9.6" transform="matrix(0.7071 -0.7071 0.7071 0.7071 -2.4453 15.2474)" width="17" height="2"/>
<rect x="12.9" y="13.8" transform="matrix(0.7071 -0.7071 0.7071 0.7071 -4.2029 19.4891)" width="17" height="2"/>
</svg>
