<?xml version="1.0" encoding="utf-8"?>
<!-- Generator: Adobe Illustrator 23.0.6, SVG Export Plug-In . SVG Version: 6.00 Build 0)  -->
<svg version="1.1" id="raf-icon-store" xmlns="http://www.w3.org/2000/svg" xmlns:xlink="http://www.w3.org/1999/xlink" x="0px"
	 y="0px" viewBox="0 0 32 32" style="enable-background:new 0 0 32 32;" xml:space="preserve">
<path style="fill:#85BBE7;" d="M31,10.3L26,2H6l-5,8.3L0,12c0,1.1,0.9,2,2,2s2-0.9,2-2c0,1.1,0.9,2,2,2s2-0.9,2-2c0,1.1,0.9,2,2,2
	s2-0.9,2-2c0,1.1,0.9,2,2,2s2-0.9,2-2c0,1.1,0.9,2,2,2s2-0.9,2-2c0,1.1,0.9,2,2,2s2-0.9,2-2c0,1.1,0.9,2,2,2s2-0.9,2-2
	c0,1.1,0.9,2,2,2s2-0.9,2-2L31,10.3z"/>
<path style="fill:#85BBE7;" d="M26,16c-0.7,0-1.4-0.2-2-0.5c-0.6,0.3-1.3,0.5-2,0.5s-1.4-0.2-2-0.5c-0.6,0.3-1.3,0.5-2,0.5
	s-1.4-0.2-2-0.5c-0.6,0.3-1.3,0.5-2,0.5s-1.4-0.2-2-0.5c-0.6,0.3-1.3,0.5-2,0.5s-1.4-0.2-2-0.5C7.4,15.8,6.7,16,6,16s-1.4-0.2-2-0.5
	c-0.3,0.2-0.6,0.3-1,0.4V28c0,1.1,0.9,2,2,2h8V20h6v10h8c1.1,0,2-0.9,2-2V15.9c-0.4-0.1-0.7-0.2-1-0.4C27.4,15.8,26.7,16,26,16z
	 M11,26H5v-6h6V26z M27,26h-6v-6h6V26z"/>
</svg>
