<?xml version="1.0" encoding="utf-8"?>
<!-- Generator: Adobe Illustrator 21.0.0, SVG Export Plug-In . SVG Version: 6.00 Build 0)  -->
<svg version="1.1" id="raf-icon-error-circle" xmlns="http://www.w3.org/2000/svg" xmlns:xlink="http://www.w3.org/1999/xlink"
	 x="0px" y="0px" viewBox="0 0 32 32" style="enable-background:new 0 0 32 32;" xml:space="preserve">
<style type="text/css">
	.st0{fill:#FFFFFF;}
</style>
<path class="st0" d="M16,2C8.3,2,2,8.3,2,16s6.3,14,14,14s14-6.3,14-14S23.7,2,16,2z M25.4,22.6l-0.7,0.7l-1.4,1.4l-0.7,0.7L16,18.8
	l-6.6,6.6l-0.7-0.7l-1.4-1.4l-0.7-0.7l6.6-6.6L6.6,9.4l0.7-0.7l1.4-1.4l0.7-0.7l6.6,6.6l6.6-6.6l0.7,0.7l1.4,1.4l0.7,0.7L18.8,16
	L25.4,22.6z"/>
</svg>
