<?xml version="1.0" encoding="utf-8"?>
<!-- Generator: Adobe Illustrator 22.0.1, SVG Export Plug-In . SVG Version: 6.00 Build 0)  -->
<svg version="1.1" id="raf-icon-pin" xmlns="http://www.w3.org/2000/svg" xmlns:xlink="http://www.w3.org/1999/xlink" x="0px"
	 y="0px" viewBox="0 0 32 32" style="enable-background:new 0 0 32 32;" xml:space="preserve">
<path style="fill:#85BBE7;" d="M28.8,10.2l-7.1-7.1c-0.4-0.4-0.4-1,0-1.4l0,0c0.4-0.4,1-0.4,1.4,0l7.1,7.1c0.4,0.4,0.4,1,0,1.4v0
	C29.9,10.6,29.2,10.6,28.8,10.2z"/>
<rect x="15.3" y="4.2" transform="matrix(0.7071 0.7071 -0.7071 0.7071 14.6317 -9.9307)" style="fill:#85BBE7;" width="8" height="17"/>
<path style="fill:#85BBE7;" d="M15.4,23.7l-7.1-7.1c-0.4-0.4-0.4-1,0-1.4l0,0c0.4-0.4,1-0.4,1.4,0l7.1,7.1c0.4,0.4,0.4,1,0,1.4l0,0
	C16.4,24,15.8,24,15.4,23.7z"/>
<polygon style="fill:#85BBE7;" points="9.1,20.1 11.9,22.9 1.3,30.7 "/>
</svg>
