<?xml version="1.0" encoding="utf-8"?>
<!-- Generator: Adobe Illustrator 22.0.1, SVG Export Plug-In . SVG Version: 6.00 Build 0)  -->
<svg version="1.1" id="raf-icon-favorite-document" xmlns="http://www.w3.org/2000/svg" xmlns:xlink="http://www.w3.org/1999/xlink"
	 x="0px" y="0px" viewBox="0 0 32 32" style="enable-background:new 0 0 32 32;" xml:space="preserve">
<polygon points="25.2,29.5 29.4,32 28.4,27.2 32,24 27.1,23.5 25.2,19 23.2,23.5 18.3,24 22,27.2 20.9,32 "/>
<path d="M6,27V3h11v7h7v7h2v-7V8V7.2l-2-2L21.8,3l-2-2H19h-2H6C4.9,1,4,1.9,4,3v24c0,1.1,0.9,2,2,2h13v-2H6z M19,3l5,5h-5V3z"/>
</svg>
