<?xml version="1.0" encoding="utf-8"?>
<!-- Generator: Adobe Illustrator 20.1.0, SVG Export Plug-In . SVG Version: 6.00 Build 0)  -->
<svg version="1.1" id="raf-icon-user" xmlns="http://www.w3.org/2000/svg" xmlns:xlink="http://www.w3.org/1999/xlink" x="0px"
	 y="0px" viewBox="0 0 32 32" style="enable-background:new 0 0 32 32;" xml:space="preserve">
<style type="text/css">
	.st0{fill:#FFFFFF;}
</style>
<path class="st0" d="M16,16C8.3,16,2,20.5,2,26v2c0,0.7,0.4,1.4,1,1.7C3.3,29.9,3.6,30,4,30h24c0.4,0,0.7-0.1,1-0.3
	c0.6-0.3,1-1,1-1.7v-2C30,20.5,23.7,16,16,16z"/>
<path class="st0" d="M16,2c-3.3,0-6,2.7-6,6c0,0.3,0,0.7,0.1,1c0.5,2.8,2.9,5,5.9,5s5.4-2.2,5.9-5C22,8.7,22,8.3,22,8
	C22,4.7,19.3,2,16,2z"/>
</svg>
