<?xml version="1.0" encoding="utf-8"?>
<!-- Generator: Adobe Illustrator 22.0.1, SVG Export Plug-In . SVG Version: 6.00 Build 0)  -->
<svg version="1.1" id="raf-icon-folder-new" xmlns="http://www.w3.org/2000/svg" xmlns:xlink="http://www.w3.org/1999/xlink"
	 x="0px" y="0px" viewBox="0 0 32 32" style="enable-background:new 0 0 32 32;" xml:space="preserve">
<path d="M16,8H2V4c0-1.1,0.9-2,2-2h10c1.1,0,2,0.9,2,2V8z"/>
<polygon points="32,26 28,26 28,22 26,22 26,26 22,26 22,28 26,28 26,32 28,32 28,28 32,28 "/>
<path d="M20,26v-2h2h2v-2v-2h2h2h2l0-8c0-1.1-0.9-2-2-2H4c-1.1,0-2,0.9-2,2v16c0,1.1,0.9,2,2,2h16v-2V26z"/>
</svg>
