<?xml version="1.0" encoding="utf-8"?>
<!-- Generator: Adobe Illustrator 21.0.0, SVG Export Plug-In . SVG Version: 6.00 Build 0)  -->
<svg version="1.1" id="raf-icon-settings-solid" xmlns="http://www.w3.org/2000/svg" xmlns:xlink="http://www.w3.org/1999/xlink"
	 x="0px" y="0px" viewBox="0 0 32 32" style="enable-background:new 0 0 32 32;" xml:space="preserve">
<style type="text/css">
	.st0{fill:#7A7E82;}
</style>
<path class="st0" d="M27.9,12.8h-1.7c-0.2-0.7-0.5-1.3-0.8-1.8l1.2-1.2c0.8-0.8,0.8-2.1,0-2.9l-1.5-1.5c-0.8-0.8-2.1-0.8-2.9,0
	L21,6.5c-0.6-0.3-1.2-0.6-1.8-0.8V4.1c0-1.1-0.9-2.1-2.1-2.1h-2.2c-1.1,0-2.1,0.9-2.1,2.1v1.7C12.2,6,11.6,6.2,11,6.5L9.8,5.3
	C9,4.6,7.6,4.6,6.9,5.3L5.3,6.9C4.5,7.7,4.5,9,5.3,9.8L6.5,11c-0.3,0.6-0.6,1.2-0.8,1.8H4.1c-1.1,0-2.1,0.9-2.1,2.1v2.2
	c0,1.1,0.9,2.1,2.1,2.1h1.7C6,19.8,6.2,20.4,6.5,21l-1.2,1.2c-0.8,0.8-0.8,2.1,0,2.9l1.5,1.5c0.8,0.8,2.1,0.8,2.9,0l1.2-1.2
	c0.6,0.3,1.2,0.6,1.8,0.8v1.7c0,1.1,0.9,2.1,2.1,2.1h2.2c1.1,0,2.1-0.9,2.1-2.1v-1.7c0.7-0.2,1.3-0.5,1.9-0.8l1.2,1.2
	c0.8,0.8,2.1,0.8,2.9,0l1.5-1.5c0.8-0.8,0.8-2.1,0-2.9L25.5,21c0.3-0.6,0.6-1.2,0.8-1.8h1.7c1.1,0,2.1-0.9,2.1-2.1v-2.2
	C30,13.8,29.1,12.8,27.9,12.8z M16,22.4c-3.5,0-6.4-2.9-6.4-6.4s2.9-6.4,6.4-6.4s6.4,2.9,6.4,6.4S19.5,22.4,16,22.4z"/>
</svg>
