<?xml version="1.0" encoding="utf-8"?>
<!-- Generator: Adobe Illustrator 21.0.2, SVG Export Plug-In . SVG Version: 6.00 Build 0)  -->
<svg version="1.1" id="raf-icon-task" xmlns="http://www.w3.org/2000/svg" xmlns:xlink="http://www.w3.org/1999/xlink" x="0px"
	 y="0px" viewBox="0 0 32 32" style="enable-background:new 0 0 32 32;" xml:space="preserve">
<path d="M29,1H3C1.9,1,1,1.9,1,3v26c0,1.1,0.9,2,2,2h26c1.1,0,2-0.9,2-2V3C31,1.9,30.1,1,29,1z M25,3c1.1,0,2,0.9,2,2
	c0,1.1-0.9,2-2,2s-2-0.9-2-2C23,3.9,23.9,3,25,3z M7,3c1.1,0,2,0.9,2,2c0,1.1-0.9,2-2,2S5,6.1,5,5C5,3.9,5.9,3,7,3z M29,15v2v5v2v5
	h-5h-2h-5h-2h-5H8H3v-5v-2v-5v-2v-5h5h2h5h2h5h2h5V15z"/>
<polygon points="12.6,27 7,21.4 9.6,18.8 12.6,21.8 22.4,12 25,14.6 "/>
</svg>
