<?xml version="1.0" encoding="utf-8"?>
<!-- Generator: Adobe Illustrator 22.1.0, SVG Export Plug-In . SVG Version: 6.00 Build 0)  -->
<svg version="1.1" id="raf-icon-announcement-error"
	 xmlns="http://www.w3.org/2000/svg" xmlns:xlink="http://www.w3.org/1999/xlink" x="0px" y="0px" viewBox="0 0 32 32"
	 style="enable-background:new 0 0 32 32;" xml:space="preserve">
<path style="fill:#E4001E;" d="M28,4H4C2.9,4,2,4.9,2,6v16c0,1.1,0.9,2,2,2h2v6l6-6h16c1.1,0,2-0.9,2-2V6C30,4.9,29.1,4,28,4z
	 M23.1,18.2l-2.8,2.8L16,16.8l-4.2,4.2l-2.8-2.8l4.2-4.2L8.9,9.8l2.8-2.8l4.2,4.2l4.2-4.2l2.8,2.8L18.8,14L23.1,18.2z"/>
</svg>
