<?xml version="1.0" encoding="utf-8"?>
<!-- Generator: Adobe Illustrator 20.1.0, SVG Export Plug-In . SVG Version: 6.00 Build 0)  -->
<svg version="1.1" id="raf-icon-help" xmlns="http://www.w3.org/2000/svg" xmlns:xlink="http://www.w3.org/1999/xlink" x="0px"
	 y="0px" viewBox="0 0 32 32" style="enable-background:new 0 0 32 32;" xml:space="preserve">
<style type="text/css">
	.st0{fill:#85BBE7;}
</style>
<g>
	<path class="st0" d="M11,11.2c0.3-0.7,0.6-1.2,1.1-1.7s1-0.9,1.7-1.1S15.2,8,16,8c1,0,1.9,0.1,2.6,0.4s1.3,0.6,1.7,1.1
		s0.7,0.9,0.9,1.4c0.2,0.5,0.3,0.9,0.3,1.4c0,0.7-0.1,1.3-0.3,1.7c-0.2,0.5-0.4,0.8-0.7,1.2c-0.3,0.3-0.6,0.6-0.9,0.8
		s-0.6,0.5-0.9,0.7c-0.3,0.2-0.6,0.5-0.8,0.8c-0.2,0.3-0.4,0.7-0.4,1.1v0.8h-3v-1c0-0.6,0.2-1.2,0.4-1.6s0.4-0.8,0.7-1.1
		s0.5-0.6,0.8-0.8s0.6-0.4,0.8-0.7s0.5-0.5,0.6-0.7c0.2-0.3,0.2-0.6,0.2-1c0-0.7-0.2-1.2-0.5-1.5s-0.8-0.5-1.4-0.5
		c-0.4,0-0.7,0.1-1,0.2c-0.3,0.2-0.5,0.4-0.7,0.6c-0.2,0.3-0.3,0.6-0.4,0.9c-0.1,0.3-0.1,0.7-0.1,1.1h-3.2
		C10.6,12.6,10.7,11.8,11,11.2z M17.6,20.6V24h-3.5v-3.4H17.6z"/>
</g>
<path class="st0" d="M16,4c6.6,0,12,5.4,12,12s-5.4,12-12,12S4,22.6,4,16S9.4,4,16,4 M16,2C8.3,2,2,8.3,2,16s6.3,14,14,14
	s14-6.3,14-14S23.7,2,16,2L16,2z"/>
</svg>
