<?xml version="1.0" encoding="utf-8"?>
<!-- Generator: Adobe Illustrator 22.1.0, SVG Export Plug-In . SVG Version: 6.00 Build 0)  -->
<svg version="1.1" id="raf-icon-configure" xmlns="http://www.w3.org/2000/svg" xmlns:xlink="http://www.w3.org/1999/xlink" x="0px"
	 y="0px" viewBox="0 0 32 32" style="enable-background:new 0 0 32 32;" xml:space="preserve">
<path style="fill:#666666;" d="M28.1,12.3c1.3-1.3,1.9-3.1,1.7-4.8c0-0.4-0.6-0.6-0.9-0.3l-3,3L23.1,11L21,8.9L21.8,6l3-3
	c0.3-0.3,0.1-0.8-0.3-0.9c-2-0.2-4.1,0.6-5.4,2.5c-1.1,1.5-1.4,3.3-0.9,5L2.7,25.1c-1.2,1.2-1.2,3.1,0,4.2c1.2,1.2,3.1,1.2,4.2,0
	l15.4-15.4C24.3,14.4,26.6,13.9,28.1,12.3z M4.1,27.9c-0.4-0.4-0.4-1,0-1.4c0.4-0.4,1-0.4,1.4,0c0.4,0.4,0.4,1,0,1.4
	C5.1,28.3,4.5,28.3,4.1,27.9z"/>
</svg>
