<?xml version="1.0" encoding="utf-8"?>
<!-- Generator: Adobe Illustrator 21.0.0, SVG Export Plug-In . SVG Version: 6.00 Build 0)  -->
<svg version="1.1" id="raf-icon-goal-met" xmlns="http://www.w3.org/2000/svg" xmlns:xlink="http://www.w3.org/1999/xlink" x="0px"
	 y="0px" viewBox="0 0 32 32" style="enable-background:new 0 0 32 32;" xml:space="preserve">
<style type="text/css">
	.st0{fill:#72c17f;}
</style>
<path class="st0" d="M16,2c7.7,0,14,6.3,14,14s-6.3,14-14,14S2,23.7,2,16S8.3,2,16,2 M16,0C7.2,0,0,7.2,0,16s7.2,16,16,16
	s16-7.2,16-16S24.8,0,16,0L16,0z"/>
<path class="st0" d="M16,7c5,0,9,4,9,9s-4,9-9,9s-9-4-9-9S11,7,16,7 M16,5C9.9,5,5,9.9,5,16s4.9,11,11,11s11-4.9,11-11S22.1,5,16,5
	L16,5z"/>
<path class="st0" d="M16,10c-3.3,0-6,2.7-6,6s2.7,6,6,6s6-2.7,6-6S19.3,10,16,10L16,10z"/>
</svg>
