<?xml version="1.0" encoding="utf-8"?>
<!-- Generator: Adobe Illustrator 18.1.1, SVG Export Plug-In . SVG Version: 6.00 Build 0)  -->
<svg version="1.1" id="Layer_1" xmlns="http://www.w3.org/2000/svg" xmlns:xlink="http://www.w3.org/1999/xlink" x="0px" y="0px"
	 viewBox="0 0 140 18" enable-background="new 0 0 140 18" xml:space="preserve">
<g>
	<path fill="#F80000" d="M58.3,11.7h8.9l-4.7-7.8L53.8,18l-3.9,0L60.4,1.1C60.9,0.4,61.6,0,62.5,0c0.8,0,1.6,0.4,2,1.1L75.1,18
		l-3.9,0l-1.9-3.1h-9L58.3,11.7z M99.2,14.9V0.2h-3.3v16.1c0,0.4,0.2,0.9,0.5,1.2c0.3,0.3,0.8,0.5,1.2,0.5h15.2l2-3.1H99.2z
		 M43.9,12.2c3.2,0,5.9-2.7,5.9-6c0-3.3-2.6-6-5.9-6H29.3V18h3.3V3.3h11.1c1.6,0,2.8,1.3,2.8,2.9c0,1.6-1.3,2.9-2.8,2.9l-9.4,0
		l10,8.9h4.9l-6.7-5.8L43.9,12.2z M8.7,18C3.9,18,0,14,0,9.1c0-4.9,3.9-8.9,8.7-8.9h10.1c4.8,0,8.7,4,8.7,8.9c0,4.9-3.9,8.9-8.7,8.9
		L8.7,18z M18.6,14.9c3.1,0,5.6-2.6,5.6-5.8c0-3.2-2.5-5.8-5.6-5.8l-9.7,0c-3.1,0-5.6,2.6-5.6,5.8c0,3.2,2.5,5.8,5.6,5.8H18.6z
		 M82,18c-4.8,0-8.7-4-8.7-8.9c0-4.9,3.9-8.9,8.7-8.9h12l-2,3.1l-9.8,0c-3.1,0-5.6,2.6-5.6,5.8c0,3.2,2.5,5.8,5.6,5.8h12.1l-2,3.1
		H82z M122.9,14.9c-2.6,0-4.7-1.8-5.4-4.2h14.3l2-3.1l-16.3,0c0.7-2.4,2.8-4.2,5.4-4.2l9.8,0l2-3.1h-12c-4.8,0-8.7,4-8.7,8.9
		c0,4.9,3.9,8.9,8.7,8.9H133l2-3.1H122.9z"/>
	<path fill="#F80000" d="M136.5,2.1c0-0.9,0.7-1.6,1.5-1.6c0.8,0,1.5,0.7,1.5,1.6c0,0.9-0.7,1.6-1.5,1.6
		C137.2,3.7,136.5,2.9,136.5,2.1z M138,4.1c1.1,0,2-0.9,2-2c0-1.1-0.9-2-2-2c-1.1,0-2,0.9-2,2C136.1,3.2,137,4.1,138,4.1z
		 M137.9,0.9c0.3,0,0.4,0,0.6,0.1c0.4,0.1,0.4,0.5,0.4,0.6c0,0,0,0.1,0,0.2c0,0.1-0.1,0.3-0.3,0.4c0,0,0,0-0.1,0.1l0.5,0.9h-0.5
		L138,2.3h-0.3v0.9h-0.4V0.9H137.9z M138,1.9c0.1,0,0.3,0,0.4-0.1c0-0.1,0.1-0.1,0.1-0.2c0-0.1-0.1-0.2-0.2-0.3c-0.1,0-0.2,0-0.4,0
		h-0.1v0.6H138z"/>
</g>
</svg>
