<?xml version="1.0" encoding="utf-8"?>
<!-- Generator: Adobe Illustrator 20.1.0, SVG Export Plug-In . SVG Version: 6.00 Build 0)  -->
<svg version="1.1" id="raf-icon-export-xls" xmlns="http://www.w3.org/2000/svg" xmlns:xlink="http://www.w3.org/1999/xlink"
	 x="0px" y="0px" viewBox="0 0 32 32" style="enable-background:new 0 0 32 32;" xml:space="preserve">
<style type="text/css">
	.st0{fill:#D4D6D7;}
</style>
<g>
	<path class="st0" d="M30,0H2C0.9,0,0,0.9,0,2v28c0,1.1,0.9,2,2,2h28c1.1,0,2-0.9,2-2V2C32,0.9,31.1,0,30,0z M25.6,6.6
		c-0.1-0.1-0.3-0.2-0.5-0.3c-0.2-0.1-0.4-0.1-0.7-0.2S23.9,6,23.7,5.9c-0.3-0.1-0.5-0.1-0.8-0.2s-0.5-0.2-0.7-0.4
		C22,5.1,21.8,5,21.7,4.7s-0.2-0.5-0.2-0.8c0-0.4,0.1-0.7,0.2-1s0.4-0.5,0.6-0.7c0.3-0.2,0.5-0.3,0.9-0.4c0.3-0.1,0.6-0.1,1-0.1
		s0.7,0,1.1,0.1c0.3,0.1,0.6,0.2,0.9,0.4s0.5,0.4,0.6,0.7C27,3.2,27.1,3.6,27.1,4h-1.5c0-0.2-0.1-0.4-0.1-0.5
		c-0.1-0.1-0.2-0.2-0.3-0.3S24.8,3,24.7,3c-0.2,0-0.3,0-0.5,0c-0.1,0-0.3,0-0.4,0s-0.2,0.1-0.3,0.1c-0.1,0.1-0.2,0.2-0.3,0.2
		c-0.1,0.1-0.1,0.2-0.1,0.4c0,0.1,0,0.3,0.1,0.3c0.1,0.1,0.2,0.2,0.3,0.2c0.2,0.1,0.4,0.1,0.7,0.2s0.6,0.2,1.1,0.3
		c0.1,0,0.3,0.1,0.6,0.1C26,5,26.2,5.1,26.4,5.3c0.2,0.2,0.4,0.4,0.6,0.6c0.2,0.3,0.3,0.6,0.3,1c0,0.3-0.1,0.6-0.2,0.9
		s-0.3,0.5-0.6,0.7C26.3,8.7,26,8.9,25.6,9s-0.8,0.2-1.3,0.2c-0.4,0-0.8,0-1.1-0.1c-0.4-0.1-0.7-0.2-1-0.5c-0.3-0.2-0.5-0.5-0.7-0.8
		s-0.2-0.7-0.2-1.1h1.5c0,0.2,0,0.4,0.1,0.6s0.2,0.3,0.3,0.4c0.1,0.1,0.3,0.2,0.5,0.2S24.2,8,24.4,8c0.1,0,0.3,0,0.5,0
		s0.3-0.1,0.5-0.1c0.1-0.1,0.3-0.2,0.3-0.3c0.1-0.1,0.1-0.3,0.1-0.4C25.8,6.9,25.7,6.7,25.6,6.6z M13.8,1.9h1.6v5.8h3.5V9h-5.1
		C13.8,9,13.8,1.9,13.8,1.9z M4.6,1.9h1.8l1.4,2.3l1.5-2.3H11L8.7,5.3L11.2,9H9.3L7.8,6.5L6.2,9H4.4l2.5-3.7L4.6,1.9z M30,30H2V11
		h28V30z"/>
</g>
<path class="st0" d="M22,14h-1h-3h-1h-3h-1H9v4H5v4v1v4h4h1h3h1h3h1h3h1h4v-4v-1v-3v-1v-4H22z M18,15h3v3h-3V15z M21,22h-3v-3h3V22z
	 M10,19h3v3h-3V19z M14,19h3v3h-3V19z M14,15h3v3h-3V15z M10,15h3v3h-3V15z M6,19h3v3H6V19z M9,26H6v-3h3V26z M13,26h-3v-3h3V26z
	 M17,26h-3v-3h3V26z M21,26h-3v-3h3V26z M25,26h-3v-3h3V26z M25,22h-3v-3h3V22z M22,18v-3h3v3H22z"/>
</svg>
