<?xml version="1.0" encoding="utf-8"?>
<!-- Generator: Adobe Illustrator 21.0.2, SVG Export Plug-In . SVG Version: 6.00 Build 0)  -->
<svg version="1.1" id="raf-icon-detach" xmlns="http://www.w3.org/2000/svg" xmlns:xlink="http://www.w3.org/1999/xlink" x="0px"
	 y="0px" viewBox="0 0 32 32" style="enable-background:new 0 0 32 32;" xml:space="preserve">
<polygon style="fill:#7A7E82;" points="18.1,3.9 21,6.7 12.7,15 17,19.2 25.2,11 28.2,13.9 28.7,3.3 "/>
<path style="fill:#7A7E82;" d="M11,21v-5v-2H4c-1.1,0-2,0.9-2,2v12c0,1.1,0.9,2,2,2h12c1.1,0,2-0.9,2-2v-7h-2H11z M9,28H4v-5h5V28z
	 M9,21H4v-5h5V21z M16,28h-5v-5h5V28z"/>
</svg>
