<?xml version="1.0" encoding="utf-8"?>
<!-- Generator: Adobe Illustrator 20.1.0, SVG Export Plug-In . SVG Version: 6.00 Build 0)  -->
<svg version="1.1" id="raf-icon-document-create" xmlns="http://www.w3.org/2000/svg" xmlns:xlink="http://www.w3.org/1999/xlink" x="0px"
	 y="0px" viewBox="0 0 32 32" style="enable-background:new 0 0 32 32;" xml:space="preserve">
<style type="text/css">
	.st0{fill:#FFFFFF;}
</style>
<polygon class="st0" points="22,17 17,17 17,12 15,12 15,17 10,17 10,19 15,19 15,24 17,24 17,19 22,19 "/>
<path class="st0" d="M25,6.2L22.8,4l-2-2H20h-2H7C5.9,2,5,2.9,5,4v24c0,1.1,0.9,2,2,2h18c1.1,0,2-0.9,2-2V11V9V8.2L25,6.2z M25,28H7
	V4h11v7h7V28z M20,9V4l5,5H20z"/>
</svg>
