<?xml version="1.0" encoding="utf-8"?>
<!-- Generator: Adobe Illustrator 20.1.0, SVG Export Plug-In . SVG Version: 6.00 Build 0)  -->
<svg version="1.1" id="raf-icon-refresh" xmlns="http://www.w3.org/2000/svg" xmlns:xlink="http://www.w3.org/1999/xlink" x="0px"
	 y="0px" viewBox="0 0 32 32" style="enable-background:new 0 0 32 32;" xml:space="preserve">
<style type="text/css">
	.st0{fill:#FFFFFF;}
</style>
<g>
	<polygon class="st0" points="31.2,14.5 26,23.5 20.8,14.5 	"/>
</g>
<path class="st0" d="M16,24.5c-4.7,0-8.5-3.8-8.5-8.5h-3c0,6.3,5.2,11.5,11.5,11.5c2.5,0,4.8-0.8,6.8-2.2l-1.5-2.6
	C19.8,23.9,17.9,24.5,16,24.5z"/>
<g>
	<polygon class="st0" points="0.8,17.5 6,8.5 11.2,17.5 	"/>
</g>
<path class="st0" d="M16,4.5c-2.5,0-4.8,0.8-6.8,2.2l1.5,2.6C12.2,8.1,14,7.5,16,7.5c4.7,0,8.5,3.8,8.5,8.5h3
	C27.5,9.7,22.3,4.5,16,4.5z"/>
</svg>
