<?xml version="1.0" encoding="utf-8"?>
<!-- Generator: Adobe Illustrator 20.1.0, SVG Export Plug-In . SVG Version: 6.00 Build 0)  -->
<svg version="1.1" id="raf-icon-view" xmlns="http://www.w3.org/2000/svg" xmlns:xlink="http://www.w3.org/1999/xlink" x="0px"
	 y="0px" viewBox="0 0 32 32" style="enable-background:new 0 0 32 32;" xml:space="preserve">
<style type="text/css">
	.st0{fill:#7A7E82;}
</style>
<g>
	<path class="st0" d="M29,13l-0.5,6h-7.6l-0.5-6H29 M11.9,13l-0.6,6H3.6l-0.5-6H12 M30.5,10H30H19.2h-6.4H2.1H1.5
		C0.7,10,0,10.7,0,11.5c0,0.2,0,0.3,0.1,0.4c0,0.1,0,0.2,0,0.3l0.7,8c0.1,1,1,1.8,2,1.8h9.4c1,0,1.9-0.8,2-1.8l0.6-7.2h2.6l0.6,7.2
		c0.1,1,1,1.8,2,1.8h9.4c1,0,1.9-0.8,2-1.8l0.7-8c0-0.2,0-0.3,0-0.5c0-0.1,0-0.1,0-0.2C32,10.7,31.3,10,30.5,10L30.5,10z"/>
</g>
</svg>
