<?xml version="1.0" encoding="utf-8"?>
<!-- Generator: Adobe Illustrator 21.0.2, SVG Export Plug-In . SVG Version: 6.00 Build 0)  -->
<svg version="1.1" id="raf-icon-video-tutorial" xmlns="http://www.w3.org/2000/svg" xmlns:xlink="http://www.w3.org/1999/xlink"
	 x="0px" y="0px" viewBox="0 0 32 32" style="enable-background:new 0 0 32 32;" xml:space="preserve">
<style type="text/css">
	.st0{fill:#FFFFFF;}
</style>
<path class="st0" d="M29,1H3C1.9,1,1,1.9,1,3v26c0,1.1,0.9,2,2,2h26c1.1,0,2-0.9,2-2V3C31,1.9,30.1,1,29,1z M29,15v2v5v2v5h-5h-2h-5
	h-2h-5H8H3v-5v-2v-5v-2V3h5h2h5h2h5h2h5V15z"/>
<g>
	<path class="st0" d="M16,8c-4.4,0-8,3.6-8,8s3.6,8,8,8s8-3.6,8-8S20.4,8,16,8z M14,20v-8l5,4L14,20z"/>
</g>
</svg>
